# xmcd
#
# Track frame offsets: 
#        150
#        13115
#        35355
#        58151
#        80172
#        100218
#        123912
#        146793
#        169580
#        183802
#        206854
#        220354
#        239689
#
# Disc length: 3466 seconds
#
# Revision: 0
# Processed by: cddbd v1.5.2PL0 Copyright (c) Steve Scherf et al.
# Submitted via: ExactAudioCopyFreeDBPlugin 1.0
#
DISCID=c10d880d
DTITLE=江智民周虹 - DTSES浓情蜜语
DYEAR=2010
DGENRE=DTSES
TTITLE0=你是我心内的一首歌
TTITLE1=冰吻
TTITLE2=为爱放弃自由
TTITLE3=我要用心的告诉你
TTITLE4=在心里从此永远有个你
TTITLE5=我不后悔
TTITLE6=曾经最美
TTITLE7=飞蛾扑火
TTITLE8=萍聚
TTITLE9=不值得
TTITLE10=花开花落
TTITLE11=车站
TTITLE12=下辈子也要找到你
EXTD=
EXTT0=
EXTT1=
EXTT2=
EXTT3=
EXTT4=
EXTT5=
EXTT6=
EXTT7=
EXTT8=
EXTT9=
EXTT10=
EXTT11=
EXTT12=
PLAYORDER=
